<svg width="31" height="31" viewBox="0 0 31 31" fill="none" xmlns="http://www.w3.org/2000/svg">
<path fill-rule="evenodd" clip-rule="evenodd" d="M15.7392 3.54487C16.0145 4.00474 15.9671 4.58871 15.6213 4.99819C14.1274 6.76715 13.2281 9.05079 13.2281 11.5477C13.2281 17.1576 17.7758 21.7053 23.3857 21.7053C24.1147 21.7053 24.8245 21.6287 25.5078 21.4836C26.0321 21.3722 26.5692 21.6063 26.8444 22.0662C27.1197 22.5261 27.0723 23.11 26.7265 23.5195C24.4051 26.2684 20.9291 28.0175 17.0458 28.0175C10.0507 28.0175 4.37997 22.3468 4.37997 15.3516C4.37997 9.26189 8.67646 4.17854 14.4026 2.96226C14.9269 2.8509 15.464 3.08501 15.7392 3.54487ZM11.6675 6.73279C8.79725 8.52793 6.88823 11.7176 6.88823 15.3516C6.88823 20.9615 11.4359 25.5092 17.0458 25.5092C18.8955 25.5092 20.6293 25.0154 22.1232 24.1515C15.7208 23.5179 10.7198 18.1168 10.7198 11.5477C10.7198 9.84375 11.0568 8.2175 11.6675 6.73279Z" fill="white"/>
</svg>
