<svg width="31" height="31" viewBox="0 0 31 31" fill="none" xmlns="http://www.w3.org/2000/svg">
<path fill-rule="evenodd" clip-rule="evenodd" d="M15.1861 2.75739C15.8788 2.75739 16.4403 3.31888 16.4403 4.01152V6.51978C16.4403 7.21241 15.8788 7.77391 15.1861 7.77391C14.4935 7.77391 13.932 7.21241 13.932 6.51978V4.01152C13.932 3.31888 14.4935 2.75739 15.1861 2.75739ZM24.0542 6.43065C24.5439 6.92042 24.5439 7.71449 24.0542 8.20426L22.2806 9.97786C21.7908 10.4676 20.9967 10.4676 20.507 9.97786C20.0172 9.4881 20.0172 8.69402 20.507 8.20426L22.2806 6.43065C22.7703 5.94088 23.5644 5.94088 24.0542 6.43065ZM6.3181 6.43065C6.80787 5.94088 7.60194 5.94088 8.09171 6.43065L9.86531 8.20426C10.3551 8.69403 10.3551 9.4881 9.86531 9.97786C9.37555 10.4676 8.58147 10.4676 8.09171 9.97786L6.3181 8.20426C5.82833 7.71449 5.82833 6.92042 6.3181 6.43065ZM15.1861 12.1634C13.4545 12.1634 12.0508 13.5671 12.0508 15.2987C12.0508 17.0303 13.4545 18.434 15.1861 18.434C16.9177 18.434 18.3215 17.0303 18.3215 15.2987C18.3215 13.5671 16.9177 12.1634 15.1861 12.1634ZM9.54255 15.2987C9.54255 12.1818 12.0693 9.6551 15.1861 9.6551C18.303 9.6551 20.8297 12.1818 20.8297 15.2987C20.8297 18.4156 18.303 20.9423 15.1861 20.9423C12.0693 20.9423 9.54255 18.4156 9.54255 15.2987ZM2.64484 15.2987C2.64484 14.6061 3.20633 14.0446 3.89897 14.0446H6.40723C7.09986 14.0446 7.66136 14.6061 7.66136 15.2987C7.66136 15.9913 7.09986 16.5528 6.40723 16.5528H3.89897C3.20633 16.5528 2.64484 15.9913 2.64484 15.2987ZM22.7109 15.2987C22.7109 14.6061 23.2724 14.0446 23.965 14.0446H26.4733C27.1659 14.0446 27.7274 14.6061 27.7274 15.2987C27.7274 15.9913 27.1659 16.5528 26.4733 16.5528H23.965C23.2724 16.5528 22.7109 15.9913 22.7109 15.2987ZM9.86532 20.6195C10.3551 21.1093 10.3551 21.9034 9.86531 22.3931L8.09171 24.1667C7.60194 24.6565 6.80787 24.6565 6.3181 24.1667C5.82833 23.677 5.82833 22.8829 6.3181 22.3931L8.09171 20.6195C8.58148 20.1297 9.37555 20.1297 9.86532 20.6195ZM20.507 20.6195C20.9967 20.1297 21.7908 20.1297 22.2806 20.6195L24.0542 22.3931C24.5439 22.8829 24.5439 23.677 24.0542 24.1667C23.5644 24.6565 22.7703 24.6565 22.2806 24.1667L20.507 22.3931C20.0172 21.9034 20.0172 21.1093 20.507 20.6195ZM15.1861 22.8235C15.8788 22.8235 16.4403 23.385 16.4403 24.0776V26.5859C16.4403 27.2785 15.8788 27.84 15.1861 27.84C14.4935 27.84 13.932 27.2785 13.932 26.5859V24.0776C13.932 23.385 14.4935 22.8235 15.1861 22.8235Z" fill="white"/>
</svg>
